<svg width="24" height="24" viewBox="0 0 24 24" fill="none" xmlns="http://www.w3.org/2000/svg">
<g id="Component 33 &#226;&#128;&#147; 2">
<g id="Group 4290">
<g id="Group 4286">
<g id="Group 4234">
<g id="Ellipse 13">
<path d="M12 24C18.6274 24 24 18.6274 24 12C24 5.37258 18.6274 0 12 0C5.37258 0 0 5.37258 0 12C0 18.6274 5.37258 24 12 24Z" fill="#C4C4C4" fill-opacity="0.26"/>
<path d="M23.7 12C23.7 18.4617 18.4617 23.7 12 23.7C5.53827 23.7 0.3 18.4617 0.3 12C0.3 5.53827 5.53827 0.3 12 0.3C18.4617 0.3 23.7 5.53827 23.7 12Z" stroke="#F3F1F1" stroke-opacity="0.49" stroke-width="0.6"/>
</g>
<g id="Icon feather-link">
<path id="Path 1150" d="M10.209 12.4073C10.4854 12.7771 10.8381 13.0831 11.2432 13.3045C11.6484 13.5259 12.0964 13.6575 12.5568 13.6905C13.0173 13.7234 13.4795 13.6569 13.912 13.4955C14.3446 13.334 14.7373 13.0814 15.0635 12.7548L16.9939 10.8244C17.3031 10.528 17.55 10.1728 17.7202 9.77974C17.8903 9.38665 17.9803 8.96355 17.9848 8.53524C17.9894 8.10693 17.9083 7.68202 17.7465 7.28543C17.5847 6.88884 17.3453 6.52854 17.0424 6.22566C16.7396 5.92279 16.3793 5.68342 15.9827 5.52159C15.5861 5.35977 15.1612 5.27874 14.7329 5.28326C14.3046 5.28778 13.8815 5.37776 13.4884 5.54793C13.0953 5.71809 12.7401 5.96501 12.4437 6.27422L11.3353 7.3744" stroke="white" stroke-width="2" stroke-linecap="round" stroke-linejoin="round"/>
<path id="Path 1151" d="M12.7834 11.1199C12.507 10.7501 12.1543 10.4441 11.7492 10.2227C11.3441 10.0013 10.8961 9.86966 10.4356 9.8367C9.97509 9.80374 9.5129 9.87025 9.08038 10.0317C8.64787 10.1932 8.25515 10.4458 7.92889 10.7724L6.00071 12.7028C5.68904 12.9986 5.43978 13.3538 5.26762 13.7476C5.09546 14.1413 5.00389 14.5655 4.99832 14.9952C4.99274 15.4248 5.07328 15.8513 5.23516 16.2493C5.39705 16.6474 5.63702 17.009 5.9409 17.3128C6.24479 17.6166 6.60645 17.8565 7.00453 18.0183C7.40262 18.18 7.82908 18.2605 8.25875 18.2548C8.68842 18.2491 9.11261 18.1575 9.50628 17.9852C9.89995 17.8129 10.2551 17.5636 10.5509 17.2519L11.6511 16.1511" stroke="white" stroke-width="2" stroke-linecap="round" stroke-linejoin="round"/>
</g>
</g>
</g>
</g>
</g>
</svg>
